<mxfile host="app.diagrams.net" modified="2022-10-21T02:58:36.933Z" agent="5.0 (Windows)" etag="uXnmaAS1KAZrbVls80Sc" version="20.4.2" type="github">
  <diagram id="8HXd06Zs-zNEdsr8r8aW" name="第 1 页">
    <mxGraphModel dx="2249" dy="1941" grid="1" gridSize="10" guides="1" tooltips="1" connect="1" arrows="1" fold="1" page="1" pageScale="1" pageWidth="827" pageHeight="1169" math="1" shadow="0">
      <root>
        <mxCell id="0" />
        <mxCell id="1" parent="0" />
        <mxCell id="DW0vB-UItoo3-7lF0b40-1" value="" style="rounded=0;whiteSpace=wrap;html=1;fontSize=18;" vertex="1" parent="1">
          <mxGeometry x="270" y="570" width="460" height="50" as="geometry" />
        </mxCell>
        <mxCell id="DW0vB-UItoo3-7lF0b40-62" value="" style="edgeStyle=orthogonalEdgeStyle;rounded=0;orthogonalLoop=1;jettySize=auto;html=1;fontSize=16;" edge="1" parent="1" source="DW0vB-UItoo3-7lF0b40-3" target="DW0vB-UItoo3-7lF0b40-23">
          <mxGeometry relative="1" as="geometry">
            <Array as="points">
              <mxPoint x="460" y="-100" />
            </Array>
          </mxGeometry>
        </mxCell>
        <mxCell id="DW0vB-UItoo3-7lF0b40-3" value="&lt;div&gt;&lt;font style=&quot;font-size: 16px&quot;&gt;$$ User \ Movement&amp;nbsp; \ Model $$&lt;/font&gt;&lt;/div&gt;" style="rounded=0;whiteSpace=wrap;html=1;fillColor=#dae8fc;strokeColor=#6c8ebf;" vertex="1" parent="1">
          <mxGeometry x="115" y="-120" width="210" height="40" as="geometry" />
        </mxCell>
        <mxCell id="DW0vB-UItoo3-7lF0b40-5" value="&lt;div&gt;&lt;font style=&quot;font-size: 16px&quot;&gt;$$ Charging\&amp;nbsp; Model $$&lt;/font&gt;&lt;/div&gt;" style="rounded=0;whiteSpace=wrap;html=1;fillColor=#dae8fc;strokeColor=#6c8ebf;" vertex="1" parent="1">
          <mxGeometry x="145" width="150" height="40" as="geometry" />
        </mxCell>
        <mxCell id="DW0vB-UItoo3-7lF0b40-7" value="&lt;div&gt;&lt;b&gt;&lt;font style=&quot;font-size: 16px&quot;&gt;$$ Local \ Computing \ Model $$&lt;/font&gt;&lt;/b&gt;&lt;/div&gt;" style="rounded=0;whiteSpace=wrap;html=1;fillColor=#dae8fc;strokeColor=#6c8ebf;" vertex="1" parent="1">
          <mxGeometry x="169" y="350" width="220" height="40" as="geometry" />
        </mxCell>
        <mxCell id="DW0vB-UItoo3-7lF0b40-9" value="&lt;div&gt;&lt;font style=&quot;font-size: 16px&quot;&gt;$$ Edge \ Computing \ Model $$&lt;/font&gt;&lt;/div&gt;" style="rounded=0;whiteSpace=wrap;html=1;fillColor=#dae8fc;strokeColor=#6c8ebf;" vertex="1" parent="1">
          <mxGeometry x="400" y="350" width="240" height="40" as="geometry" />
        </mxCell>
        <mxCell id="DW0vB-UItoo3-7lF0b40-10" value="&lt;font style=&quot;font-size: 14px&quot;&gt;$$Energy \ Consumption$$&lt;/font&gt;" style="rounded=0;whiteSpace=wrap;html=1;fontSize=18;strokeColor=default;" vertex="1" parent="1">
          <mxGeometry x="394.62" y="581.25" width="175" height="27.5" as="geometry" />
        </mxCell>
        <mxCell id="DW0vB-UItoo3-7lF0b40-12" value="&lt;font style=&quot;font-size: 14px&quot;&gt;$$Task$$&lt;/font&gt;" style="rounded=0;whiteSpace=wrap;html=1;" vertex="1" parent="1">
          <mxGeometry x="870" y="-150" width="80" height="40" as="geometry" />
        </mxCell>
        <mxCell id="DW0vB-UItoo3-7lF0b40-15" value="&lt;div&gt;&lt;font style=&quot;font-size: 14px&quot;&gt;$$ User \ Device $$&lt;/font&gt;&lt;/div&gt;" style="rounded=0;whiteSpace=wrap;html=1;" vertex="1" parent="1">
          <mxGeometry x="-80" y="-60" width="120" height="40" as="geometry" />
        </mxCell>
        <mxCell id="DW0vB-UItoo3-7lF0b40-18" value="&lt;div&gt;&lt;font style=&quot;font-size: 18px&quot;&gt;&lt;font style=&quot;font-size: 14px&quot;&gt;$$ Task \ Partitioning \ Strategy $$&lt;/font&gt;&lt;/font&gt;&lt;/div&gt;" style="rounded=0;whiteSpace=wrap;html=1;fillColor=#f8cecc;strokeColor=#b85450;" vertex="1" parent="1">
          <mxGeometry x="174" y="190" width="210" height="30" as="geometry" />
        </mxCell>
        <mxCell id="DW0vB-UItoo3-7lF0b40-20" value="&lt;div&gt;&lt;font style=&quot;font-size: 14px&quot;&gt;$$ Resource \ Allocation \ Strategy $$&lt;/font&gt;&lt;/div&gt;" style="rounded=0;whiteSpace=wrap;html=1;fillColor=#f8cecc;strokeColor=#b85450;" vertex="1" parent="1">
          <mxGeometry x="486.5" y="190" width="220" height="30" as="geometry" />
        </mxCell>
        <mxCell id="DW0vB-UItoo3-7lF0b40-63" style="edgeStyle=orthogonalEdgeStyle;rounded=0;orthogonalLoop=1;jettySize=auto;html=1;entryX=1;entryY=0.5;entryDx=0;entryDy=0;fontSize=16;" edge="1" parent="1" source="DW0vB-UItoo3-7lF0b40-23" target="DW0vB-UItoo3-7lF0b40-5">
          <mxGeometry relative="1" as="geometry">
            <Array as="points">
              <mxPoint x="460" y="20" />
            </Array>
          </mxGeometry>
        </mxCell>
        <mxCell id="DW0vB-UItoo3-7lF0b40-23" value="$$Available \ Servers$$" style="rounded=0;whiteSpace=wrap;html=1;fontSize=16;" vertex="1" parent="1">
          <mxGeometry x="415" y="-60" width="170" height="40" as="geometry" />
        </mxCell>
        <mxCell id="DW0vB-UItoo3-7lF0b40-24" value="&lt;div&gt;&lt;font style=&quot;font-size: 14px&quot;&gt;$$Server \ Cost$$&lt;/font&gt;&lt;/div&gt;" style="rounded=0;whiteSpace=wrap;html=1;fontSize=18;strokeColor=default;" vertex="1" parent="1">
          <mxGeometry x="594.37" y="581.25" width="121.25" height="27.5" as="geometry" />
        </mxCell>
        <mxCell id="DW0vB-UItoo3-7lF0b40-25" value="&lt;div&gt;&lt;font style=&quot;font-size: 14px&quot;&gt;$$ Latency$$&lt;/font&gt;&lt;/div&gt;" style="rounded=0;whiteSpace=wrap;html=1;fontSize=18;strokeColor=default;" vertex="1" parent="1">
          <mxGeometry x="280.62" y="581.25" width="90" height="27.5" as="geometry" />
        </mxCell>
        <mxCell id="DW0vB-UItoo3-7lF0b40-28" value="$$MADDPG-based \ Method$$" style="rounded=0;whiteSpace=wrap;html=1;fontSize=18;strokeColor=#d6b656;fillColor=#fff2cc;" vertex="1" parent="1">
          <mxGeometry x="920" y="300" width="305" height="60" as="geometry" />
        </mxCell>
        <mxCell id="DW0vB-UItoo3-7lF0b40-65" style="edgeStyle=orthogonalEdgeStyle;rounded=0;orthogonalLoop=1;jettySize=auto;html=1;entryX=0;entryY=0.5;entryDx=0;entryDy=0;fontSize=16;" edge="1" parent="1" source="DW0vB-UItoo3-7lF0b40-29" target="DW0vB-UItoo3-7lF0b40-23">
          <mxGeometry relative="1" as="geometry" />
        </mxCell>
        <mxCell id="DW0vB-UItoo3-7lF0b40-29" value="$$MEC\ Servers$$" style="rounded=0;whiteSpace=wrap;html=1;fontSize=16;" vertex="1" parent="1">
          <mxGeometry x="125" y="-60" width="170" height="40" as="geometry" />
        </mxCell>
        <mxCell id="DW0vB-UItoo3-7lF0b40-31" value="&lt;div&gt;&lt;b&gt;User Location&lt;/b&gt;&lt;/div&gt;" style="text;html=1;align=center;verticalAlign=middle;resizable=0;points=[];autosize=1;strokeColor=none;fillColor=none;" vertex="1" parent="1">
          <mxGeometry x="325" y="-120" width="100" height="30" as="geometry" />
        </mxCell>
        <mxCell id="DW0vB-UItoo3-7lF0b40-33" value="&lt;b&gt;Servers Location&lt;/b&gt;" style="text;html=1;align=center;verticalAlign=middle;resizable=0;points=[];autosize=1;strokeColor=none;fillColor=none;" vertex="1" parent="1">
          <mxGeometry x="294" y="-60" width="120" height="30" as="geometry" />
        </mxCell>
        <mxCell id="DW0vB-UItoo3-7lF0b40-38" value="&lt;font style=&quot;font-size: 15px;&quot;&gt;&lt;b&gt;$$e_i^{pred}&amp;gt;ba_i^{rem}$$&lt;/b&gt;&lt;/font&gt;" style="text;html=1;align=center;verticalAlign=middle;resizable=0;points=[];autosize=1;strokeColor=none;fillColor=none;" vertex="1" parent="1">
          <mxGeometry x="250" y="-10" width="220" height="30" as="geometry" />
        </mxCell>
        <mxCell id="DW0vB-UItoo3-7lF0b40-39" value="&lt;div&gt;&lt;b&gt;Generate&lt;/b&gt;&lt;/div&gt;" style="text;html=1;align=center;verticalAlign=middle;resizable=0;points=[];autosize=1;strokeColor=none;fillColor=none;fontSize=15;" vertex="1" parent="1">
          <mxGeometry x="325" y="-275" width="90" height="30" as="geometry" />
        </mxCell>
        <mxCell id="DW0vB-UItoo3-7lF0b40-40" value="&lt;font style=&quot;font-size: 15px;&quot;&gt;&lt;b&gt;$$e_i^{pred}&amp;lt;ba_i^{rem}$$&lt;/b&gt;&lt;/font&gt;" style="text;html=1;align=center;verticalAlign=middle;resizable=0;points=[];autosize=1;strokeColor=none;fillColor=none;" vertex="1" parent="1">
          <mxGeometry x="890" y="90" width="220" height="30" as="geometry" />
        </mxCell>
        <mxCell id="DW0vB-UItoo3-7lF0b40-42" value="$$Servers \ Resource$$" style="rounded=1;whiteSpace=wrap;html=1;fontSize=15;" vertex="1" parent="1">
          <mxGeometry x="680" y="320" width="140" height="40" as="geometry" />
        </mxCell>
      </root>
    </mxGraphModel>
  </diagram>
</mxfile>
